<mxfile host="app.diagrams.net" agent="Mozilla/5.0 (Windows NT 10.0; Win64; x64) AppleWebKit/537.36 (KHTML, like Gecko) Chrome/132.0.0.0 Safari/537.36" version="26.0.10">
  <diagram id="zqiqeIqmS7KpD-wSqgL0" name="Page-1">
    <mxGraphModel dx="1939" dy="910" grid="1" gridSize="10" guides="1" tooltips="1" connect="1" arrows="1" fold="1" page="1" pageScale="1" pageWidth="827" pageHeight="1169" math="0" shadow="0">
      <root>
        <mxCell id="0" />
        <mxCell id="1" parent="0" />
        <mxCell id="XDgs3CGOougbLGq00Z3T-25" value="" style="rounded=0;whiteSpace=wrap;html=1;fontSize=16;strokeColor=none;" parent="1" vertex="1">
          <mxGeometry x="-90" y="20" width="830" height="500" as="geometry" />
        </mxCell>
        <mxCell id="f1ZjvtyvyRh0iq4FDvLp-1" style="edgeStyle=orthogonalEdgeStyle;rounded=0;orthogonalLoop=1;jettySize=auto;html=1;exitX=0.5;exitY=0;exitDx=0;exitDy=0;entryX=0.5;entryY=0;entryDx=0;entryDy=0;" edge="1" parent="1" source="XDgs3CGOougbLGq00Z3T-1" target="XDgs3CGOougbLGq00Z3T-2">
          <mxGeometry relative="1" as="geometry" />
        </mxCell>
        <mxCell id="XDgs3CGOougbLGq00Z3T-1" value="&lt;font style=&quot;font-size: 18px;&quot;&gt;&lt;b&gt;Navigateur&lt;/b&gt;&lt;/font&gt;" style="rounded=1;whiteSpace=wrap;html=1;" parent="1" vertex="1">
          <mxGeometry x="50" y="110" width="150" height="60" as="geometry" />
        </mxCell>
        <mxCell id="XDgs3CGOougbLGq00Z3T-12" style="edgeStyle=orthogonalEdgeStyle;rounded=0;orthogonalLoop=1;jettySize=auto;html=1;exitX=1;exitY=0.5;exitDx=0;exitDy=0;entryX=0.5;entryY=0;entryDx=0;entryDy=0;fontSize=18;" parent="1" source="XDgs3CGOougbLGq00Z3T-2" target="XDgs3CGOougbLGq00Z3T-5" edge="1">
          <mxGeometry relative="1" as="geometry" />
        </mxCell>
        <mxCell id="XDgs3CGOougbLGq00Z3T-18" style="edgeStyle=orthogonalEdgeStyle;rounded=0;orthogonalLoop=1;jettySize=auto;html=1;exitX=0;exitY=0.5;exitDx=0;exitDy=0;fontSize=18;" parent="1" source="XDgs3CGOougbLGq00Z3T-2" target="XDgs3CGOougbLGq00Z3T-6" edge="1">
          <mxGeometry relative="1" as="geometry" />
        </mxCell>
        <mxCell id="XDgs3CGOougbLGq00Z3T-2" value="&lt;b&gt;&lt;font style=&quot;font-size: 18px;&quot;&gt;Controlleur&lt;/font&gt;&lt;/b&gt;" style="rounded=1;whiteSpace=wrap;html=1;" parent="1" vertex="1">
          <mxGeometry x="310" y="250" width="150" height="60" as="geometry" />
        </mxCell>
        <mxCell id="XDgs3CGOougbLGq00Z3T-14" style="edgeStyle=orthogonalEdgeStyle;rounded=0;orthogonalLoop=1;jettySize=auto;html=1;exitX=0;exitY=0.5;exitDx=0;exitDy=0;entryX=0.5;entryY=1;entryDx=0;entryDy=0;fontSize=18;" parent="1" source="XDgs3CGOougbLGq00Z3T-5" target="XDgs3CGOougbLGq00Z3T-2" edge="1">
          <mxGeometry relative="1" as="geometry" />
        </mxCell>
        <mxCell id="XDgs3CGOougbLGq00Z3T-5" value="&lt;b&gt;&lt;font style=&quot;font-size: 18px;&quot;&gt;Modèle&lt;br&gt;&lt;/font&gt;&lt;/b&gt;" style="rounded=1;whiteSpace=wrap;html=1;" parent="1" vertex="1">
          <mxGeometry x="550" y="430" width="150" height="60" as="geometry" />
        </mxCell>
        <mxCell id="XDgs3CGOougbLGq00Z3T-20" style="edgeStyle=orthogonalEdgeStyle;rounded=0;orthogonalLoop=1;jettySize=auto;html=1;exitX=0;exitY=0.5;exitDx=0;exitDy=0;entryX=0;entryY=0.5;entryDx=0;entryDy=0;fontSize=18;" parent="1" source="XDgs3CGOougbLGq00Z3T-6" target="XDgs3CGOougbLGq00Z3T-1" edge="1">
          <mxGeometry relative="1" as="geometry" />
        </mxCell>
        <mxCell id="XDgs3CGOougbLGq00Z3T-6" value="&lt;b&gt;&lt;font style=&quot;font-size: 18px;&quot;&gt;Vue&lt;br&gt;&lt;/font&gt;&lt;/b&gt;" style="rounded=1;whiteSpace=wrap;html=1;" parent="1" vertex="1">
          <mxGeometry x="40" y="430" width="150" height="60" as="geometry" />
        </mxCell>
        <mxCell id="XDgs3CGOougbLGq00Z3T-10" value="&lt;font style=&quot;font-size: 18px; font-weight: normal;&quot;&gt;Requête HTTP&lt;br&gt;&lt;/font&gt;" style="text;strokeColor=none;fillColor=none;html=1;fontSize=24;fontStyle=1;verticalAlign=middle;align=center;" parent="1" vertex="1">
          <mxGeometry x="200" y="30" width="100" height="40" as="geometry" />
        </mxCell>
        <mxCell id="XDgs3CGOougbLGq00Z3T-13" value="&lt;font style=&quot;font-size: 18px; font-weight: normal;&quot;&gt;Retourne&lt;br&gt;les données&lt;/font&gt;" style="text;strokeColor=none;fillColor=none;html=1;fontSize=24;fontStyle=1;verticalAlign=middle;align=center;" parent="1" vertex="1">
          <mxGeometry x="420" y="410" width="100" height="40" as="geometry" />
        </mxCell>
        <mxCell id="XDgs3CGOougbLGq00Z3T-15" value="&lt;font style=&quot;font-size: 18px; font-weight: normal;&quot;&gt;Demande &lt;br&gt;des données&lt;/font&gt;" style="text;strokeColor=none;fillColor=none;html=1;fontSize=24;fontStyle=1;verticalAlign=middle;align=center;" parent="1" vertex="1">
          <mxGeometry x="470" y="230" width="150" height="40" as="geometry" />
        </mxCell>
        <mxCell id="XDgs3CGOougbLGq00Z3T-19" value="&lt;font style=&quot;font-size: 18px; font-weight: normal;&quot;&gt;Retourne&lt;br&gt;les données traitées&lt;/font&gt;" style="text;strokeColor=none;fillColor=none;html=1;fontSize=24;fontStyle=1;verticalAlign=middle;align=center;" parent="1" vertex="1">
          <mxGeometry x="160" y="230" width="100" height="40" as="geometry" />
        </mxCell>
        <mxCell id="XDgs3CGOougbLGq00Z3T-21" value="&lt;span style=&quot;font-size: 18px; font-weight: 400;&quot;&gt;Réponse&lt;br&gt;&lt;/span&gt;" style="text;strokeColor=none;fillColor=none;html=1;fontSize=24;fontStyle=1;verticalAlign=middle;align=center;" parent="1" vertex="1">
          <mxGeometry x="-80" y="220" width="100" height="50" as="geometry" />
        </mxCell>
        <mxCell id="XDgs3CGOougbLGq00Z3T-22" value="&lt;font style=&quot;font-size: 16px;&quot;&gt;&lt;span style=&quot;color: rgb(0, 0, 0); font-family: Helvetica; font-style: normal; font-variant-ligatures: normal; font-variant-caps: normal; font-weight: 400; letter-spacing: normal; orphans: 2; text-indent: 0px; text-transform: none; widows: 2; word-spacing: 0px; -webkit-text-stroke-width: 0px; text-decoration-thickness: initial; text-decoration-style: initial; text-decoration-color: initial; float: none; display: inline !important;&quot;&gt;HTML&lt;/span&gt;&lt;br style=&quot;color: rgb(0, 0, 0); font-family: Helvetica; font-style: normal; font-variant-ligatures: normal; font-variant-caps: normal; font-weight: 400; letter-spacing: normal; orphans: 2; text-indent: 0px; text-transform: none; widows: 2; word-spacing: 0px; -webkit-text-stroke-width: 0px; text-decoration-thickness: initial; text-decoration-style: initial; text-decoration-color: initial;&quot;&gt;&lt;span style=&quot;color: rgb(0, 0, 0); font-family: Helvetica; font-style: normal; font-variant-ligatures: normal; font-variant-caps: normal; font-weight: 400; letter-spacing: normal; orphans: 2; text-indent: 0px; text-transform: none; widows: 2; word-spacing: 0px; -webkit-text-stroke-width: 0px; text-decoration-thickness: initial; text-decoration-style: initial; text-decoration-color: initial; float: none; display: inline !important;&quot;&gt;XML&lt;/span&gt;&lt;br style=&quot;color: rgb(0, 0, 0); font-family: Helvetica; font-style: normal; font-variant-ligatures: normal; font-variant-caps: normal; font-weight: 400; letter-spacing: normal; orphans: 2; text-indent: 0px; text-transform: none; widows: 2; word-spacing: 0px; -webkit-text-stroke-width: 0px; text-decoration-thickness: initial; text-decoration-style: initial; text-decoration-color: initial;&quot;&gt;&lt;span style=&quot;color: rgb(0, 0, 0); font-family: Helvetica; font-style: normal; font-variant-ligatures: normal; font-variant-caps: normal; font-weight: 400; letter-spacing: normal; orphans: 2; text-indent: 0px; text-transform: none; widows: 2; word-spacing: 0px; -webkit-text-stroke-width: 0px; text-decoration-thickness: initial; text-decoration-style: initial; text-decoration-color: initial; float: none; display: inline !important;&quot;&gt;JSON&lt;/span&gt;&lt;br style=&quot;color: rgb(0, 0, 0); font-family: Helvetica; font-style: normal; font-variant-ligatures: normal; font-variant-caps: normal; font-weight: 400; letter-spacing: normal; orphans: 2; text-indent: 0px; text-transform: none; widows: 2; word-spacing: 0px; -webkit-text-stroke-width: 0px; text-decoration-thickness: initial; text-decoration-style: initial; text-decoration-color: initial;&quot;&gt;&lt;span style=&quot;color: rgb(0, 0, 0); font-family: Helvetica; font-style: normal; font-variant-ligatures: normal; font-variant-caps: normal; font-weight: 400; letter-spacing: normal; orphans: 2; text-indent: 0px; text-transform: none; widows: 2; word-spacing: 0px; -webkit-text-stroke-width: 0px; text-decoration-thickness: initial; text-decoration-style: initial; text-decoration-color: initial; float: none; display: inline !important;&quot;&gt;...&lt;/span&gt;&lt;/font&gt;" style="text;whiteSpace=wrap;html=1;fontSize=18;align=center;" parent="1" vertex="1">
          <mxGeometry x="-70" y="260" width="80" height="110" as="geometry" />
        </mxCell>
        <mxCell id="XDgs3CGOougbLGq00Z3T-23" value="&lt;span style=&quot;color: rgb(0, 0, 0); font-family: Helvetica; font-style: normal; font-variant-ligatures: normal; font-variant-caps: normal; font-weight: 400; letter-spacing: normal; orphans: 2; text-indent: 0px; text-transform: none; widows: 2; word-spacing: 0px; -webkit-text-stroke-width: 0px; text-decoration-thickness: initial; text-decoration-style: initial; text-decoration-color: initial; float: none; display: inline !important;&quot;&gt;(action utilisateur)&lt;/span&gt;" style="text;whiteSpace=wrap;html=1;fontSize=16;align=center;" parent="1" vertex="1">
          <mxGeometry x="165" y="60" width="170" height="30" as="geometry" />
        </mxCell>
        <mxCell id="f1ZjvtyvyRh0iq4FDvLp-3" value="&lt;b&gt;&lt;font style=&quot;font-size: 18px; color: rgb(0, 0, 255);&quot;&gt;1&lt;/font&gt;&lt;/b&gt;" style="ellipse;whiteSpace=wrap;html=1;aspect=fixed;" vertex="1" parent="1">
          <mxGeometry x="394" y="149" width="30" height="30" as="geometry" />
        </mxCell>
        <mxCell id="f1ZjvtyvyRh0iq4FDvLp-4" value="&lt;b&gt;&lt;font style=&quot;font-size: 18px; color: rgb(0, 0, 255);&quot;&gt;2&lt;/font&gt;&lt;/b&gt;" style="ellipse;whiteSpace=wrap;html=1;aspect=fixed;" vertex="1" parent="1">
          <mxGeometry x="635" y="330" width="30" height="30" as="geometry" />
        </mxCell>
        <mxCell id="f1ZjvtyvyRh0iq4FDvLp-5" value="&lt;b&gt;&lt;font style=&quot;font-size: 18px; color: rgb(0, 0, 255);&quot;&gt;3&lt;/font&gt;&lt;/b&gt;" style="ellipse;whiteSpace=wrap;html=1;aspect=fixed;" vertex="1" parent="1">
          <mxGeometry x="396" y="360" width="30" height="30" as="geometry" />
        </mxCell>
        <mxCell id="f1ZjvtyvyRh0iq4FDvLp-6" value="&lt;b&gt;&lt;font style=&quot;font-size: 18px; color: rgb(0, 0, 255);&quot;&gt;4&lt;/font&gt;&lt;/b&gt;" style="ellipse;whiteSpace=wrap;html=1;aspect=fixed;" vertex="1" parent="1">
          <mxGeometry x="123" y="338" width="30" height="30" as="geometry" />
        </mxCell>
        <mxCell id="f1ZjvtyvyRh0iq4FDvLp-7" value="&lt;b&gt;&lt;font style=&quot;font-size: 18px; color: rgb(0, 0, 255);&quot;&gt;5&lt;/font&gt;&lt;/b&gt;" style="ellipse;whiteSpace=wrap;html=1;aspect=fixed;" vertex="1" parent="1">
          <mxGeometry x="30" y="265" width="30" height="30" as="geometry" />
        </mxCell>
      </root>
    </mxGraphModel>
  </diagram>
</mxfile>
